# xmcd CD database file
#
# Track frame offsets:
#	150
#	12685
#	20117
#	43032
#	58510
#	73342
#	83085
#	89650
#	105105
#	127107
#	137887
#
# Disc length: 2121 seconds
#
# Revision: 0
# Processed by: cddbd v1.5.2PL0 Copyright (c) Steve Scherf et al.
# Submitted via: CDex 1.51
#
DISCID=9e08470b
DTITLE=John Lee Hooker - Concert at Newport
DYEAR=1963
DGENRE=Blues
TTITLE0=I Can't Quit You Now Blues
TTITLE1=Stop Baby Don't Hold Me That Way
TTITLE2=Tupelo
TTITLE3=Bus Station Blues
TTITLE4=Freight Train Be My Friend
TTITLE5=Boom Boom Boom
TTITLE6=Talk That Talk Baby
TTITLE7=Sometime Baby You Make Me So Bad
TTITLE8=You've Got To Walk Yourself
TTITLE9=Let's Make It
TTITLE10=The Mighty Fire
EXTD=YEAR: 1963
EXTT0=
EXTT1=
EXTT2=
EXTT3=
EXTT4=
EXTT5=
EXTT6=
EXTT7=
EXTT8=
EXTT9=
EXTT10=
PLAYORDER=
